# xmcd
#
# Track frame offsets: 
#        182
#        12095
#        42982
#        93227
#        124210
#        155892
#
# Disc length: 2325 seconds
#
# Revision: 1
# Processed by: cddbd v1.5.2PL0 Copyright (c) Steve Scherf et al.
# Submitted via: ExactAudioCopy v0.99pb4
#
DISCID=46091306
DTITLE=Niels-Henning Orsted Pedersen - Pictures
DYEAR=1976
DGENRE=Jazz
TTITLE0=Skagen
TTITLE1=School Song
TTITLE2=It's All There
TTITLE3=Signal
TTITLE4=Afternoon's Sentiment
TTITLE5=Daughters
EXTD=
EXTT0=
EXTT1=
EXTT2=
EXTT3=
EXTT4=
EXTT5=
PLAYORDER=
